<svg xmlns="http://www.w3.org/2000/svg" viewBox="0 0 539 806"><defs><style>.cls-1,.cls-2{fill:none;stroke:#000;}.cls-1{stroke-linecap:round;stroke-linejoin:round;stroke-width:4px;}.cls-2{stroke-miterlimit:10;}</style></defs><title>Artboard 1</title><g id="ears"><path d="M192.63,299.19c-1.86-6.07-6.25-10.68-10.82-14.89-3.31-3-7-7.28-11.95-6.83-5.22.47-7.82,4-7.59,9,.32,6.8,2.09,13.85,3.65,20.44,3.44,14.51,8.63,28.87,16.47,41.61,3,4.9,4.34,8.78,10.76,6.27,2.8-1.1,5.71-5.13,6.56-8,.34-1.14-1.3-2.23-2.1-1.22-1.9,2.38-3.49,4.9-6.55,5.67-2.56.64-2.71-.67-4-2.68s-2.59-4.07-3.78-6.17a136.56,136.56,0,0,1-12-28.87q-2.09-7.1-3.59-14.35c-.9-4.33-3.06-10.48-2.11-14.89,2-9.38,11.84-.21,14.87,2.52,4.05,3.65,8.24,7.69,10,13,.47,1.42,2.7.83,2.26-.62Z"/><path d="M175.93,287.93a10,10,0,0,0-3.72,6c-.39,1.95-.84,5,.24,6.75a.57.57,0,0,0,1-.13c.67-1.59.05-3.73.25-5.46a8.78,8.78,0,0,1,3.34-6c.8-.66-.34-1.77-1.13-1.13Z"/><path d="M184.38,302.68a19,19,0,0,1,2.39,5.4c.45,1.76.45,3.55.76,5.33a.73.73,0,0,0,1.4,0c.76-3.9-1.05-8.33-3.16-11.54-.56-.86-1.94-.07-1.38.81Z"/><path d="M177.46,311c.23,6.3,2.75,21.91,12.72,18.15.43-.16.58-.95,0-1-3-.43-6.19-.51-7.45-3.5-1.94-4.59-3.46-8.56-3.72-13.61-.05-1-1.59-1-1.55,0Z"/><path d="M416.46,287.66c2,7.35-2.43,13.87-4.27,20.72a27.36,27.36,0,0,0-.93,7.15c0,4.29-.29,7-2.77,10.63-1,1.4,1,3.39,2.38,2.38,6.45-4.61,3.5-12.51,5.07-19.13,1.83-7.74,5.66-14.34,2.85-22.4a1.21,1.21,0,0,0-2.33.64Z"/></g><g id="Jawline"><path d="M407.57,312.5c-1.79,16.61-1.39,34.27-7.1,50.15-1.83,5.09-3.41,10.61-6,15.34-3,5.39-7.33,9.8-11.55,14.22a118.63,118.63,0,0,0-8,10c-4.18,5.45-8.51,10.71-12.13,16.56s-6.74,12.3-11.19,17.54C346,442.87,337,443.7,329,444.11c-9.3.48-18.63,1.07-27.93,1.28-10.11.23-19.28-1.51-28.17-6.43a154.73,154.73,0,0,1-15.59-10.51,227.58,227.58,0,0,1-24.86-20.2,110.79,110.79,0,0,1-23.58-32.1,100.83,100.83,0,0,1-7.45-22.35c-1.91-9.06-1.88-18.16-3-27.3-.11-.94-1.69-1.4-1.85-.25-2,14.54,1.56,31,6.84,44.56A106.81,106.81,0,0,0,223,402.6a170.07,170.07,0,0,0,25.18,22.7c10.48,7.95,21.39,17,34.12,20.87,9.49,2.91,19.45,2.09,29.22,1.58,8.63-.45,17.46-.49,26-1.88,6.55-1.06,12.49-3.43,16.64-8.78,4.38-5.65,7.67-12.13,11.46-18.17a200.92,200.92,0,0,1,17.18-23c6.47-7.59,13.08-13.78,16.56-23.46,2.54-7.09,5.57-14.17,6.62-21.67,1.77-12.65,2.17-25.57,3.43-38.28.12-1.19-1.72-1.17-1.85,0Z"/></g><g id="Hair"><path id="Hair_Color" data-name="Hair Color" class="cls-1" d="M197.44,327.28c-4.11-4.85-4-12-3.93-18.92,0,0,0-2.95,0-3.53.06-4.07.12-8.28-1-12.39-.18-.65-.32-1.18-.43-1.62-.61-2.32-.81-2.91-2.23-4.22-.19-.18-.44-.4-.75-.72-4.32-4.32-9.21-9.21-15.46-13.37-5.61-3.74-13-15.57-13.4-21.45a3,3,0,0,0-2.39-2.74c-2.47-5.25-1.31-10,0-15.49a60.35,60.35,0,0,0,1.66-8.66c.21-2.21.35-4.36.49-6.75a3,3,0,0,0-.34-1.57.54.54,0,0,1,0-.19c-1-8.73,1-17.1,3.23-26,1.13-4.57,2.29-9.3,3-14.07a3,3,0,0,0-.57-2.24l-.07-.62a19,19,0,0,1,1-9.54.5.5,0,0,1,.08-.13,3,3,0,0,0,.48-.92,84.05,84.05,0,0,1,5.45-12.58c4.17-8.19,9-16.1,13.26-22.76,6.13-9.68,12.48-16,19.43-19.42,1.9-.93,3.88-1.66,6-2.44,1.45-.54,2.95-1.09,4.43-1.72a9.17,9.17,0,0,0,1-.55c.28-.16.6-.36.88-.49a3,3,0,0,0,.84-4.85,5,5,0,0,0-1.32-1c-.6-.29-1.18-.62-1.76-.95s-1-.56-1.49-.82a78.24,78.24,0,0,0,13.55-2.87,49.35,49.35,0,0,0,8.39-2.88,17.93,17.93,0,0,0,2.21-1.27,3,3,0,0,0,0-5l1.33,0c7,0,13.34-2,19.49-3.88,5.15-1.59,10-3.1,15.18-3.53,4.48-.37,8.86-.76,13.17-1.48a21.72,21.72,0,0,0,2.5-.62c.51-.15,1-.3,1.52-.42a3,3,0,0,0,2.13-4l0-.06c6.33,2.23,13,2.64,19.53,3,6.65.41,12.93.8,18.6,3a3,3,0,0,0,3.77-4.14q-.25-.49-.51-1l.66.84c.59.74,1.15,1.45,1.6,2.13a3,3,0,0,0,5.34-.65,5.41,5.41,0,0,0,1,3.24,4,4,0,0,0,3.2,1.89,4.53,4.53,0,0,0,2.46-.86l.38-.23a.29.29,0,0,1,0,.06,4.71,4.71,0,0,0,.84,3.6c1.9,2.67,6.28,3.57,10.61,4.27l1,.17,1.68.31c2.93.54,6,1.09,8,2.67a13.55,13.55,0,0,1,5.08,11.34A39.34,39.34,0,0,1,374.9,105l-.14.55a3,3,0,0,0,4.37,3.36,10.6,10.6,0,0,1,5.23-1.28c7.94,0,17.83,6.86,23.87,12.74,6.91,6.71,10.63,12.58,12.07,19a71.82,71.82,0,0,1,1.54,18.32,15.32,15.32,0,0,1-1.78,6.34,3,3,0,0,0-.22,2.46,44.27,44.27,0,0,0,4.77,9.12c2.25,3.58,4.37,7,4.93,11a.39.39,0,0,1-.06.27h-.28a2.93,2.93,0,0,0-2.18,1,3,3,0,0,0-.67,2.72l.14.57c.21.9.42,1.74.57,2.59a64.25,64.25,0,0,1,.78,9.47c.06,1.79.12,3.64.26,5.47s.33,3.91.51,5.87c.78,8.47,1.58,17.22-.2,25.48a168.1,168.1,0,0,1-6.16,20.13c-1.81,5.14-3.68,10.45-5.13,15.8-3.35,12.36-6,25.18-8.32,36.46a150.08,150.08,0,0,0-4.62-53.07c-1.19-4.41-2.5-8.84-3.76-13.13-3-10-6-20.38-7.59-30.85a.47.47,0,0,1,.14-.21,3,3,0,0,0,.84-2.76c-.55-2.6-1-5.22-1.35-7.78a.57.57,0,0,1,0-.24,3,3,0,0,0,.45-2.48c-.54-2.07-1.09-4.14-1.65-6.2-.71-2.64-1.56-5.71-2.51-8.71-.14-.44-.33-.87-.53-1.33a11.53,11.53,0,0,1-.46-1.18,3,3,0,0,0-1.6-1.9c-.71-3.64-1.06-7.43-1.4-11.09q-.13-1.44-.27-2.87c-.49-4.94-4.33-9-7.41-12.29-.6-.64-1.18-1.26-1.72-1.86-6.62-7.45-13-11.15-19.62-11.33h-.48a30.5,30.5,0,0,0-6.52.9,25.53,25.53,0,0,1-5.25.76,10.16,10.16,0,0,1-1.65-.13,24.21,24.21,0,0,1-6.95-2.75,43.93,43.93,0,0,0-5.31-2.44,35.61,35.61,0,0,0-6.88-1.5l-1.43-.22c-1.7-.27-3.71-.58-5.75-.83l-.38,0a3,3,0,0,0-3,2.58l-.9-.29a15.87,15.87,0,0,1-4.2-1.75,3,3,0,0,0-1.79-.59h-.38l-.6,0a73.51,73.51,0,0,0-9.62,1.17,3,3,0,0,0-2.28,4,114.53,114.53,0,0,1-13.09.61h-.48a3,3,0,0,0-1.73-.55,3,3,0,0,0-.83.12,54.48,54.48,0,0,0-6.68,2.44,3,3,0,0,0-1.53,1.5A30.93,30.93,0,0,1,249.64,155a3,3,0,0,0-2.62-1.52,3,3,0,0,0-2.23,1q-.61.68-1.19,1.43c-3.33,4.28-5.71,9.15-8,13.85-.89,1.82-1.81,3.7-2.75,5.47-6.33,11.9-12.72,24.87-16.59,39.11a3,3,0,0,0,0,1.55c1,3.73-.5,8.26-1.92,12.64-.53,1.62-1.08,3.3-1.48,4.91h0a3,3,0,0,0-2.55-1.43l-.3,0a3,3,0,0,0-2.58,2.17c-4.59,16.32-5.25,33.78-5.9,50.67C200.91,299,200.36,313.69,197.44,327.28Z"/><path id="Hair_Color-2" data-name="Hair Color" class="cls-1" d="M197.44,327.28c-4.11-4.85-4-12-3.93-18.92,0,0,0-2.95,0-3.53.06-4.07.12-8.28-1-12.39-.18-.65-.32-1.18-.43-1.62-.61-2.32-.81-2.91-2.23-4.22-.19-.18-.44-.4-.75-.72-4.32-4.32-9.21-9.21-15.46-13.37-5.61-3.74-13-15.57-13.4-21.45a3,3,0,0,0-2.39-2.74c-2.47-5.25-1.31-10,0-15.49a60.35,60.35,0,0,0,1.66-8.66c.21-2.21.35-4.36.49-6.75a3,3,0,0,0-.34-1.57.54.54,0,0,1,0-.19c-1-8.73,1-17.1,3.23-26,1.13-4.57,2.29-9.3,3-14.07a3,3,0,0,0-.57-2.24l-.07-.62a19,19,0,0,1,1-9.54.5.5,0,0,1,.08-.13,3,3,0,0,0,.48-.92,84.05,84.05,0,0,1,5.45-12.58c4.17-8.19,9-16.1,13.26-22.76,6.13-9.68,12.48-16,19.43-19.42,1.9-.93,3.88-1.66,6-2.44,1.45-.54,2.95-1.09,4.43-1.72a9.17,9.17,0,0,0,1-.55c.28-.16.6-.36.88-.49a3,3,0,0,0,.84-4.85,5,5,0,0,0-1.32-1c-.6-.29-1.18-.62-1.76-.95s-1-.56-1.49-.82a78.24,78.24,0,0,0,13.55-2.87,49.35,49.35,0,0,0,8.39-2.88,17.93,17.93,0,0,0,2.21-1.27,3,3,0,0,0,0-5l1.33,0c7,0,13.34-2,19.49-3.88,5.15-1.59,10-3.1,15.18-3.53,4.48-.37,8.86-.76,13.17-1.48a21.72,21.72,0,0,0,2.5-.62c.51-.15,1-.3,1.52-.42a3,3,0,0,0,2.13-4l0-.06c6.33,2.23,13,2.64,19.53,3,6.65.41,12.93.8,18.6,3a3,3,0,0,0,3.77-4.14q-.25-.49-.51-1l.66.84c.59.74,1.15,1.45,1.6,2.13a3,3,0,0,0,5.34-.65,5.41,5.41,0,0,0,1,3.24,4,4,0,0,0,3.2,1.89,4.53,4.53,0,0,0,2.46-.86l.38-.23a.29.29,0,0,1,0,.06,4.71,4.71,0,0,0,.84,3.6c1.9,2.67,6.28,3.57,10.61,4.27l1,.17,1.68.31c2.93.54,6,1.09,8,2.67a13.55,13.55,0,0,1,5.08,11.34A39.34,39.34,0,0,1,374.9,105l-.14.55a3,3,0,0,0,4.37,3.36,10.6,10.6,0,0,1,5.23-1.28c7.94,0,17.83,6.86,23.87,12.74,6.91,6.71,10.63,12.58,12.07,19a71.82,71.82,0,0,1,1.54,18.32,15.32,15.32,0,0,1-1.78,6.34,3,3,0,0,0-.22,2.46,44.27,44.27,0,0,0,4.77,9.12c2.25,3.58,4.37,7,4.93,11a.39.39,0,0,1-.06.27h-.28a2.93,2.93,0,0,0-2.18,1,3,3,0,0,0-.67,2.72l.14.57c.21.9.42,1.74.57,2.59a64.25,64.25,0,0,1,.78,9.47c.06,1.79.12,3.64.26,5.47s.33,3.91.51,5.87c.78,8.47,1.58,17.22-.2,25.48a168.1,168.1,0,0,1-6.16,20.13c-1.81,5.14-3.68,10.45-5.13,15.8-3.35,12.36-6,25.18-8.32,36.46a150.08,150.08,0,0,0-4.62-53.07c-1.19-4.41-2.5-8.84-3.76-13.13-3-10-6-20.38-7.59-30.85a.47.47,0,0,1,.14-.21,3,3,0,0,0,.84-2.76c-.55-2.6-1-5.22-1.35-7.78a.57.57,0,0,1,0-.24,3,3,0,0,0,.45-2.48c-.54-2.07-1.09-4.14-1.65-6.2-.71-2.64-1.56-5.71-2.51-8.71-.14-.44-.33-.87-.53-1.33a11.53,11.53,0,0,1-.46-1.18,3,3,0,0,0-1.6-1.9c-.71-3.64-1.06-7.43-1.4-11.09q-.13-1.44-.27-2.87c-.49-4.94-4.33-9-7.41-12.29-.6-.64-1.18-1.26-1.72-1.86-6.62-7.45-13-11.15-19.62-11.33h-.48a30.5,30.5,0,0,0-6.52.9,25.53,25.53,0,0,1-5.25.76,10.16,10.16,0,0,1-1.65-.13,24.21,24.21,0,0,1-6.95-2.75,43.93,43.93,0,0,0-5.31-2.44,35.61,35.61,0,0,0-6.88-1.5l-1.43-.22c-1.7-.27-3.71-.58-5.75-.83l-.38,0a3,3,0,0,0-3,2.58l-.9-.29a15.87,15.87,0,0,1-4.2-1.75,3,3,0,0,0-1.79-.59h-.38l-.6,0a73.51,73.51,0,0,0-9.62,1.17,3,3,0,0,0-2.28,4,114.53,114.53,0,0,1-13.09.61h-.48a3,3,0,0,0-1.73-.55,3,3,0,0,0-.83.12,54.48,54.48,0,0,0-6.68,2.44,3,3,0,0,0-1.53,1.5A30.93,30.93,0,0,1,249.64,155a3,3,0,0,0-2.62-1.52,3,3,0,0,0-2.23,1q-.61.68-1.19,1.43c-3.33,4.28-5.71,9.15-8,13.85-.89,1.82-1.81,3.7-2.75,5.47-6.33,11.9-12.72,24.87-16.59,39.11a3,3,0,0,0,0,1.55c1,3.73-.5,8.26-1.92,12.64-.53,1.62-1.08,3.3-1.48,4.91h0a3,3,0,0,0-2.55-1.43l-.3,0a3,3,0,0,0-2.58,2.17c-4.59,16.32-5.25,33.78-5.9,50.67C200.91,299,200.36,313.69,197.44,327.28Z"/></g><g id="Glasses"><path d="M219,275.38c-.1,8,0,18.34,5.23,24.93s15.7,6.05,23.16,6.17c18,.28,41.74-1.93,50.87-19.88.43-.85-.85-1.61-1.28-.75-8.32,16.42-29.24,18.88-45.86,19.19-7.43.14-19.21,1-24.94-4.58-6.11-6-6-17.19-6-25.08a.59.59,0,0,0-1.18,0Z"/><path d="M333.29,282.89c2.74,7.11,7,13.69,13.25,18.2,7.87,5.68,17.54,5.93,26.9,6.05,9.13.12,18-1.85,25.74-6.88,7.54-4.9,7.8-15,9.08-23.25.14-.91-1.25-1.29-1.39-.38-.64,4.3-1.51,8.56-2.46,12.8-1,4.56-2.5,7.48-6.61,10.07-7.36,4.65-15.74,6.37-24.35,6.27-8.31-.1-17.09-.15-24.39-4.63-6.91-4.25-11.61-11.15-14.5-18.61-.3-.78-1.57-.44-1.26.35Z"/><path d="M297.69,286.23h0s0,0,0-.1a55.79,55.79,0,0,0,4.67-14.59c1-6.65-3.2-8.8-7.85-10.12-1.74-.5-3.51-1-5.27-1.36a121,121,0,0,0-27.76-2.78H252.3c-7.61,0-14,.29-20.2,1.7l-.63.14c-4,.88-8.44,1.88-10.54,6.25a1.79,1.79,0,0,0-1.26,1,3.22,3.22,0,0,0,.34,2.72c0,.92-.12,1.84-.19,2.76-.09,1.15-.19,2.34-.22,3.53a4.39,4.39,0,0,1-3.31-1.49,1.93,1.93,0,0,1-.24-.56,3.81,3.81,0,0,0-.43-1l-.3-.47c-.77-1.22-1.92-3.06-3.54-3.34a2.73,2.73,0,0,0-.46,0,9.55,9.55,0,0,0-4,1.45c-.4.21-.76.41-1.06.54l-2.76,1.26c-6.44,3-13.75,6.3-20.73,6.3-.71,0-1.41,0-2.08-.1a.22.22,0,0,1-.1,0l0-2.61c2.44-1.35,4.88-2.78,7.33-4.21,5.52-3.23,11.23-6.56,17-9.43,6.83-3.4,14.12-4.52,21-5.22,10-1,21.39-2.19,32.48-2.19a128.78,128.78,0,0,1,16.37,1c4.92.63,9.85,1.72,14.61,2.78,2.58.57,5.25,1.17,7.9,1.68a64.26,64.26,0,0,0,26.29-.21A228.38,228.38,0,0,1,370,254.92h.88c7.79,0,15.67.29,23.41.86,1.54.11,3.16.19,4.81.27,5.35.26,10.88.53,15.54,2.05,0,.54.06,1.11.09,1.71a22.18,22.18,0,0,1-.32,6.77l0,0a1.76,1.76,0,0,0-.69.72,16,16,0,0,1-1.11,1.73c-.42.6-.85,1.23-1.18,1.81s-.67,1.33-1,2c-.73,1.62-1.48,3.3-2.75,3.86l0-.34a55.09,55.09,0,0,0,.67-7.52c0-4.36-1.62-6.64-5.9-8.39-4.61-1.89-10.33-2.43-15.37-2.91l-1.18-.11c-3.59-.35-7.33-.52-11.12-.52a142.71,142.71,0,0,0-18.89,1.32c-4.78.64-9.76,1.53-14.79,2.64-.6.13-1.19.24-1.75.35-3.73.71-7.25,1.39-8,6.89-.44,3.12,0,7,1.41,11.63.17.56.33,1,.48,1.42.44,1.21.53,1.45-.09,2.43-.75-1.19-1.56-2.34-2.35-3.45a34,34,0,0,1-4.77-8.29c-.17-.47-.3-1-.44-1.53-.53-2-1.18-4.45-3.49-5.28a14.56,14.56,0,0,0-4.82-.63c-1,0-1.94,0-2.67.09-8.7.49-10.12,6.6-11.38,12-.83,3.55-1.68,7.22-4.44,9.48l-.26.21-.07.27Z"/><path d="M258.35,255.25a127.82,127.82,0,0,1,16.25,1c4.87.62,9.78,1.71,14.52,2.76,2.59.57,5.26,1.17,7.92,1.69a65.26,65.26,0,0,0,26.68-.21A227.39,227.39,0,0,1,370,255.92h3.91a144.73,144.73,0,0,0-18.14,1.33c-4.81.65-9.81,1.54-14.87,2.65-.59.13-1.17.24-1.73.35-3.73.71-8,1.52-8.82,7.73a28.81,28.81,0,0,0,1.34,11.69l-.08-.11a33.3,33.3,0,0,1-4.64-8c-.15-.42-.28-.92-.42-1.45-.55-2.09-1.31-5-4.11-6a15.49,15.49,0,0,0-5.16-.69c-1,0-2,0-2.73.09-7.36.41-9.94,4.62-11.32,9q.07-.43.14-.85c1.08-7.43-3.72-9.85-8.56-11.23-1.75-.5-3.54-1-5.32-1.37a122,122,0,0,0-28-2.8h-9.2c-7.68,0-14.08.29-20.41,1.72l-.63.14c-3.87.86-8.65,1.93-11,6.42a2.77,2.77,0,0,0-1.45,1.36,3.92,3.92,0,0,0,.23,3.35c0,.81-.11,1.62-.17,2.48s-.13,1.63-.17,2.47a2.78,2.78,0,0,1-1.55-.93,2.72,2.72,0,0,1-.1-.29,4.71,4.71,0,0,0-.55-1.2l-.29-.45c-.86-1.37-2.16-3.43-4.22-3.79a3.71,3.71,0,0,0-.63-.05,10.2,10.2,0,0,0-4.43,1.57c-.38.2-.74.4-1,.51l-2.77,1.26c-6.35,2.91-13.55,6.21-20.32,6.21-.4,0-.8,0-1.19,0v-.39l0-.71c2.29-1.3,4.59-2.65,6.83-4,5.5-3.22,11.19-6.54,16.93-9.4,6.32-3.14,12.82-4.32,20.64-5.12,10-1,21.34-2.18,32.37-2.18m122.13.82c4.59.14,9.17.38,13.72.71,1.56.12,3.15.19,4.83.27,5,.24,10.24.5,14.64,1.81,0,.32,0,.66,0,1a24.45,24.45,0,0,1-.19,6.1,2.57,2.57,0,0,0-.77.93,16.12,16.12,0,0,1-1,1.6c-.43.62-.88,1.26-1.23,1.88s-.71,1.39-1,2.1l-.4.89a39.56,39.56,0,0,0,.27-4.49c0-4.79-1.85-7.4-6.52-9.31s-10.54-2.49-15.66-3l-1.17-.11c-1.8-.17-3.64-.31-5.5-.4M301.58,279a18.91,18.91,0,0,1-1.15,3.21q.63-1.65,1.15-3.21m-43.23-25.73c-10.88,0-21.78,1.09-32.58,2.19-7.47.76-14.54,1.94-21.33,5.32-8.33,4.14-16.31,9.12-24.4,13.71a1,1,0,0,0-.49.85l.07,2.62a1,1,0,0,0,1,1c.73.07,1.45.11,2.18.11,8.22,0,16.62-4.38,23.9-7.64,1.17-.53,3.25-1.91,4.62-1.91l.29,0c1.38.24,2.54,2.41,3.18,3.38.33.49.32,1,.71,1.56a5.39,5.39,0,0,0,4.12,1.91h0a1,1,0,0,0,.94-1c.06-2.19.33-4.36.42-6.54q-1.19-2.25.25-2.53a1,1,0,0,0,.44-.25c1.93-4.38,6.48-5.18,10.62-6.11,6.52-1.47,13.26-1.67,20-1.67l7.46,0h1.73A121.1,121.1,0,0,1,289,261q2.63.61,5.22,1.35c4.81,1.37,8,3.34,7.13,9a55.52,55.52,0,0,1-4.59,14.32,1,1,0,0,0,.59,1.46l.86.28a1,1,0,0,0,.32.05.91.91,0,0,0,.86-.74c7.48-6.14,1.89-20.5,15.24-21.25.78,0,1.69-.09,2.62-.09a14,14,0,0,1,4.48.57c2.35.85,2.56,4,3.33,6.2,1.59,4.56,4.8,8.1,7.33,12.14a.84.84,0,0,0,.71.41.87.87,0,0,0,.73-.41c1.3-2,.57-2.41-.16-4.86-1-3.43-1.88-7.61-1.38-11.2.77-5.54,4.45-5.41,9-6.4,4.87-1.07,9.77-2,14.71-2.62a141.05,141.05,0,0,1,18.75-1.31c3.68,0,7.36.17,11,.52,5.12.5,11.43,1,16.26,3,3.93,1.61,5.27,3.54,5.28,7.47a56.87,56.87,0,0,1-.7,7.7,1,1,0,0,0,.86,1.21.9.9,0,0,0,.3-.05c2.43-.85,3.18-4.2,4.43-6.38.67-1.17,1.87-2.65,2.33-3.59.16-.32.62-.34.76-.79.81-2.52.39-6.25.32-8.89a1,1,0,0,0-.71-.93c-6.26-2.05-14-1.89-20.59-2.37q-11.72-.86-23.47-.86H370a229.66,229.66,0,0,0-46.66,4.57,63.26,63.26,0,0,1-25.89.2c-7.54-1.47-14.94-3.5-22.57-4.47a130.62,130.62,0,0,0-16.5-1Z"/></g><g id="eyes"><g id="Brows"><g id="Left_Eyebrow" data-name="Left Eyebrow"><path d="M296.39,258a2.36,2.36,0,0,1-1.37-.46c-.8-.56-1.57-1.15-2.34-1.73a29.55,29.55,0,0,0-6.55-4.11,51.51,51.51,0,0,0-8.72-2.61,64.33,64.33,0,0,0-13.95-1.41c-1.31,0-2.68,0-4.06.1a63.56,63.56,0,0,0-18.57,3.82,44.61,44.61,0,0,0-5.1,2.35c-3,1.55-6.16,3.15-9.4,3.16a.58.58,0,0,1-.43-.25.33.33,0,0,1-.07-.29c1.82-5.07,7.66-7.52,12.81-9.69l1-.41a70.84,70.84,0,0,1,19.93-5,54.63,54.63,0,0,1,6-.32,64.66,64.66,0,0,1,14.54,1.73,45.72,45.72,0,0,1,10.14,3.43,28.82,28.82,0,0,1,6.33,4.66c.7.62,1.41,1.25,2.16,1.87a2.41,2.41,0,0,1,.7,2.81,3.49,3.49,0,0,1-3,2.37Z"/><path d="M265.52,242.12a63.66,63.66,0,0,1,14.31,1.7,45.39,45.39,0,0,1,9.92,3.36,28.07,28.07,0,0,1,6.11,4.51c.7.62,1.42,1.26,2.18,1.9a1.38,1.38,0,0,1,.4,1.71,2.53,2.53,0,0,1-2.05,1.71,1.37,1.37,0,0,1-.8-.28c-.78-.55-1.56-1.14-2.31-1.71a30.33,30.33,0,0,0-6.77-4.23,52.45,52.45,0,0,0-8.89-2.66,65.35,65.35,0,0,0-14.16-1.43c-1.33,0-2.71,0-4.11.1a64.54,64.54,0,0,0-18.86,3.87,45.4,45.4,0,0,0-5.21,2.4c-2.79,1.43-5.43,2.78-8.14,3,2-4.12,7.25-6.32,11.91-8.28l1-.41a69.85,69.85,0,0,1,19.65-4.95,53.64,53.64,0,0,1,5.85-.32h0m0-2a55.41,55.41,0,0,0-6.07.33,71.69,71.69,0,0,0-20.21,5.09c-5.31,2.26-12.24,4.85-14.34,10.68a1.5,1.5,0,0,0,1.43,1.88h0c5.29,0,10-3.81,14.83-5.56a62.32,62.32,0,0,1,18.28-3.76q2-.09,4-.09a64,64,0,0,1,13.73,1.38,51.18,51.18,0,0,1,8.55,2.55c3.32,1.37,5.8,3.71,8.7,5.73a3.35,3.35,0,0,0,1.94.64c3.13,0,5.85-4.53,2.93-7s-5.24-5-8.68-6.66a47.51,47.51,0,0,0-10.36-3.51,65.66,65.66,0,0,0-14.76-1.75Z"/></g><g id="Right_Eyebrow" data-name="Right Eyebrow"><path d="M328.28,257.82a3.18,3.18,0,0,1-2.81-2.41,2.91,2.91,0,0,1,1.31-3.43c13.08-8.24,24.26-12.25,34.18-12.25l1.14,0c5.84.19,12.54,2,18.33,3.83,4.42,1.37,9.34,3.15,11.81,7.07.05.08,0,.1,0,.12a.49.49,0,0,1-.39.2,50.9,50.9,0,0,1-8.27-2.21,67.74,67.74,0,0,0-6.7-1.94A65.6,65.6,0,0,0,363.1,245q-1,0-2,.05c-11.4.61-23.33,7.31-31.31,12.29a2.94,2.94,0,0,1-1.56.49Z"/><path d="M361,240.73l1.1,0c5.72.19,12.34,2,18.07,3.79,3.59,1.11,7.53,2.5,10,5.1-2.05-.45-4.11-1.13-6.25-1.83a68.64,68.64,0,0,0-6.8-2,66.48,66.48,0,0,0-14-1.85c-.68,0-1.36,0-2,.05-11.63.62-23.71,7.4-31.78,12.44a2,2,0,0,1-1,.34,2.2,2.2,0,0,1-1.85-1.69,1.91,1.91,0,0,1,.88-2.31c12.92-8.14,23.92-12.09,33.64-12.09m0-2c-12.2,0-24.67,6.08-34.71,12.4-3.72,2.34-1.44,7.69,2,7.69a3.92,3.92,0,0,0,2.09-.64c8.84-5.52,20.22-11.57,30.83-12.14q1-.05,1.91-.05a64.54,64.54,0,0,1,13.59,1.8c5,1.09,9.92,3.4,15,4.16l.21,0a1.24,1.24,0,0,0,1.21-1.85c-2.66-4.22-7.77-6.07-12.36-7.49-5.76-1.78-12.55-3.68-18.59-3.87l-1.17,0Z"/></g></g><ellipse cx="264.31" cy="269.65" rx="8.16" ry="6.15"/><path d="M264.31,265c3.61,0,6.66,2.13,6.66,4.65s-3.05,4.65-6.66,4.65-6.66-2.13-6.66-4.65,3.05-4.65,6.66-4.65m0-3c-5.33,0-9.66,3.43-9.66,7.65s4.33,7.65,9.66,7.65,9.66-3.43,9.66-7.65-4.33-7.65-9.66-7.65Z"/><circle cx="356.88" cy="268.74" r="6.75"/><path d="M356.88,263.49a5.25,5.25,0,1,1-5.25,5.25,5.26,5.26,0,0,1,5.25-5.25m0-3a8.25,8.25,0,1,0,8.25,8.25,8.26,8.26,0,0,0-8.25-8.25Z"/><path d="M341.91,272.29l-3.22-.4.41,3.14a29,29,0,0,1,15.67-10.1c3.9-1.07,7.88-1.58,11.84-.47,4.27,1.2,6.6,3.88,9.76,6.69a1.8,1.8,0,0,0,2.82-2.17c-3.69-7.59-13.79-10.17-21.49-8.93-8.57,1.38-16.09,5.26-21.42,12.15-.69.89-.91,2.57.41,3.14a8.5,8.5,0,0,0,5.74.65c2.06-.4,1.62-4-.5-3.71Z"/><path d="M282,281a22.61,22.61,0,0,0,6.57-1.21,2.21,2.21,0,0,0,1.59-2.08c-.4-11.85-16.39-18.62-26.72-18.09-11.31.58-21,5-25.43,15.84-.86,2.09,2.06,3.18,3.44,2,2.23-1.9,3.48-4.56,5.48-6.67,3.71-3.92,8.69-5.05,13.9-5.64,8.67-1,23.56,3,25.08,13.14l1.51-2.66A18.09,18.09,0,0,1,282,277c-2.53.21-2.61,4.09,0,4Z"/></g><g id="Mouth"><path d="M368,347.92c3.49,4,6,7,5.86,12.6-.08,3.25-1.49,4.54-3.46,6.94-.44.53.29,1.3.77.77,2.35-2.55,3.7-4.2,3.72-7.72,0-6.11-2.34-8.8-6.27-13.22-.38-.42-1,.2-.62.62Z"/><path d="M263.86,367.16a7,7,0,0,1,3-.75l3.05-.38q3.05-.39,6.11-.73c4.08-.42,8.14-1,12.2-1.59s8.21-1.13,12.42-1.37c4.24-.5,8.13.35,12.17.46A62.11,62.11,0,0,0,325,362c4-.68,8.18-.42,12.29-.65,8.24-.22,16.44-.27,24.64-.29a.23.23,0,0,1,.12.42l-.1.06a6.43,6.43,0,0,1-3,.72,19.33,19.33,0,0,0-3.06.36c-2,.39-4.05.92-6.09,1.11s-4.07.3-6.11.4l-6.1.28c-8.13.45-16.34,1.17-24.64,1.44-2.07.09-4.17.1-6.25.07s-4.12-.14-6.13-.31a54.88,54.88,0,0,0-6-.17c-2,.05-4,.09-6.07.28-4.07.42-8.14.77-12.2,1.33-2,.3-4,.58-6.08.82-1,.13-2,.19-3.06.28s-2,.46-3.17-.56l-.1-.08a.25.25,0,0,1,0-.35Z"/><path d="M278.8,372.21a9.78,9.78,0,0,0,5,.91c2.46-.15,3.41.55,5.77,1,1.78.36,3.44-.55,5-.31,1,.15,2.05,1.59,3.25,1.93,2.2.62,4.48-.52,6.66.3,1.07.4,1.17,1.14,2.68,1.37,2.39.37,8.16,1,10.36.18,1.14-.41,1.23-.05,1.78-1.15l-1.4-.38-.05.4a.75.75,0,0,0,.37.65c2.62,1.86,7.45.73,10.12-.44,1.22-.54,2.38-1.87,3.68-2.13.37-.07,1.95.44,2.51.4,2.11-.14,4.61-1.1,6.71-1.45a6.5,6.5,0,0,0,2.82-.79c2-1.11,4.45-2.44,5.72-4.37.53-.81-.77-1.56-1.3-.76-1.55,2.37-14,7.38-16,5.27a.77.77,0,0,0-1.06,0,13.8,13.8,0,0,1-5.66,3.14c-.67.16-6.47.95-6.36.08s-1.08-1-1.4-.38c-.46.92-6.43.39-7.4.29-2.13-.22-3.41-1-5.51-1.66-2.56-.77-7.94.63-9.34-2.22a.76.76,0,0,0-1-.27c-4,1.92-4.92,0-8.54-.78-3.07-.64,0,2.73-6.63-.16-.88-.38-1.64.91-.76,1.3Z"/><path class="cls-2" d="M266.5,369.5c19.59,25,79,25,94-7"/><path d="M294.92,394.58a64.51,64.51,0,0,0,11.31,2.18,62.62,62.62,0,0,0,11.4,0c1.89-.15,3.77-.43,5.68-.74s3.83-.62,5.73-.87a16.8,16.8,0,0,0,5.35-1.6,31.9,31.9,0,0,0,5-2.87,22,22,0,0,1-4.53,3.73,17.94,17.94,0,0,1-2.65,1.41,18.21,18.21,0,0,1-2.88.87,97.52,97.52,0,0,1-11.53,2.07c-2,.15-3.92.21-5.9.18a41.87,41.87,0,0,1-5.89-.59A37.26,37.26,0,0,1,294.92,394.58Z"/></g><g id="Nose"><path d="M292.76,315.53c-5.42,2.45-6.43,6.15-6.36,11.68,0,2.28.15,5.46,2,7.15,2.71,2.54,7.55.46,10.48-.43,3.35-1,6.28-1.49,9.33.61,1.75,1.2,3.14,3,5,4a10.21,10.21,0,0,0,10.79-.6c2.52-1.73,4.7-4.12,7.51-5.39,3.19-1.45,4.94.17,8.08.47,10.74,1,3.68-13.67.89-17.38-.33-.43-.23,1.37.06,1.76,2.61,3.47,6.56,10.07,2,13-1.67,1.09-3.64.68-5.44.14-3-.89-4.62-.94-7.45.81-5.57,3.44-9.59,9.07-16.75,5.25-2.34-1.25-3.94-3.59-6.33-4.76-3.41-1.66-6.57-.3-10,.68-2.06.59-6,2-7.94.35s-1.69-6-1.33-8.35c.54-3.58,2.62-5.59,5.86-7,.5-.23-.1-2.11-.45-1.95Z"/><path d="M312.45,329.51a4.58,4.58,0,0,0,4,3.6c2.45.35,6.38-.69,7.4-3.2,0-.06-.06-.38-.12-.32-2.31,2.78-9.77,5.07-11.07-.13-.08-.34-.28-.3-.19,0Z"/><path d="M318.08,265A220.57,220.57,0,0,1,329.86,316c0,.12.21.45.19.15a199.89,199.89,0,0,0-11.84-51.25c-.12-.34-.2,0-.13.17Z"/></g><g id="Neck"><path d="M199.38,358.28a161,161,0,0,1-1.23,45.1,197.63,197.63,0,0,1-4,19.64c-1.29,4.82-4.3,8.18-7.26,12.1-.58.77.72,1.52,1.3.76,2.62-3.47,5.61-6.7,7-10.89,2.21-6.79,3.34-14.17,4.47-21.2a162.41,162.41,0,0,0,1.28-45.5c-.11-.95-1.62-1-1.5,0Z"/><path d="M197.1,411c.63,2.34,1.5,4.6,2.31,6.89.42,1.14.82,2.29,1.18,3.47s.64,2.41.94,3.56.61,2.34,1,3.48l1.14,3.37a67.7,67.7,0,0,0,2.45,6.71.1.1,0,0,1-.05.14.1.1,0,0,1-.1,0,14.22,14.22,0,0,1-4.25-6.15,20.27,20.27,0,0,1-.92-3.61c-.23-1.21-.43-2.42-.62-3.63l-.27-1.8c-.1-.58-.22-1.16-.36-1.75-.28-1.17-.59-2.34-.9-3.51-.61-2.35-1.31-4.69-1.69-7.11a.1.1,0,0,1,.08-.11A.1.1,0,0,1,197.1,411Z"/><path d="M369.21,411.69c-4.12,17.1-9.07,33.68-14.72,50.33-7.54,22.22-12.87,45.11-20.61,67.27l1.45.4,23.39-73.48c.29-.92-1.15-1.32-1.45-.4l-23.39,73.48c-.3.93,1.13,1.3,1.45.4,7.74-22.16,13.07-45.05,20.61-67.27,5.65-16.64,10.6-33.23,14.72-50.33.23-.94-1.22-1.34-1.45-.4Z"/></g><g id="Shirt"><g id="Left"><path d="M175.19,411.5c6,22.86,19.93,41.71,36.07,58.49A327,327,0,0,0,243,498.69q8.63,6.89,17.46,13.54,5.21,3.95,10.46,7.84c3.28,2.44,6.35,5.32,10.43,6.19a2.37,2.37,0,0,0,2.64-3.44c-3.49-6.08-11.7-10-17.25-14.1-6.47-4.77-12.91-9.59-19.24-14.54-10.69-8.36-21.31-16.82-31.19-26.15-16.84-15.91-31.27-34.94-37.53-57.53a1.88,1.88,0,0,0-3.63,1Z"/><path d="M153.23,465.49C157.54,480.79,167.1,494,176,507c10.18,14.8,18.71,30.35,27.43,46a1.93,1.93,0,0,0,3,.38c4.18-3.85,7.67-8.39,12-12.17a83,83,0,0,1,16.74-11.57c13.24-6.83,29.11-9.31,43.43-4.51,7.46,2.5,15.79,4.8,22.73,8.51,9.52,5.1,10.92,13.28,10.78,23.35,0,2.12,3.39,2.7,3.8.51,1.8-9.72-1.17-19.58-9.43-25.36-7.18-5-16.33-6.79-24.4-9.9-14.4-5.54-30.53-4.14-44.51,2a81.68,81.68,0,0,0-18.15,11.15c-5.8,4.63-10.25,10.32-15.65,15.3l3,.38c-8.47-15.17-16.69-30.31-26.56-44.63-9-13.08-19-26.45-23.38-41.94-.64-2.26-4.17-1.3-3.53,1Z"/></g><g id="Right"><path d="M378.77,536.72c3.26,7,8.47,13.2,14.11,18.4a1.6,1.6,0,0,0,2.7-1.12c.15-11.09,1.92-21.9,3.84-32.79,1-5.91,2.59-13,.82-18.9-.88-3-2.87-4.56-4.89-6.7-1.72-1.83-2.9-4.09-5-5.56-3.1-2.16-7.29-2.13-10.75-.89-5.68,2-6.6,8-7.76,13.26-1.48,6.67-3.07,17-9.95,20.4-3.15,1.57-6.87,1-10,2.43-4.46,2.06-9.18,6.64-12.57,10.24-4,4.24-5.69,10.33-8,15.54-4,9.12-9,18.85-9.28,29-.07,2.52,3.85,2.52,3.92,0,.23-8.84,4.61-17.56,8.06-25.51,2-4.68,3.62-10.11,6.48-14.38,2.6-3.89,7-6.83,10.62-9.71,3-2.41,5.83-2.17,9.39-3,11.14-2.72,13.34-16.59,15.47-26,.6-2.65,1.09-6.29,3.46-8,4.94-3.53,9.15.19,12.32,3.77,1.55,1.75,3.67,3.14,4.64,5.32,2.74,6.15,0,15.38-1.12,21.5a172.8,172.8,0,0,0-2.87,30l2.7-1.12c-5.55-5-10.63-10.87-13.89-17.6-.8-1.66-3.23-.21-2.46,1.44Z"/><path d="M398.6,502c-1.62-2.21-3.12-4.49-4.75-6.68s-3.23-4.39-4.86-6.55c-3.29-4.32-6.79-8.42-10.38-12.41s-7.51-7.72-11.38-11.71a77.4,77.4,0,0,1-5.52-6.33c-.86-1.12-1.7-2.25-2.52-3.39s-1.55-2.35-2.25-3.58l3.38-2.44c3.4,4.26,6.92,8.36,10.63,12.37s7.45,8,11,12.3a161.4,161.4,0,0,1,9.9,13.27l2.28,3.45,2.15,3.53c1.45,2.34,2.77,4.75,4.16,7.13Z"/><path d="M357.13,504.3c1.59,3.73,2,7.47,2.9,11.37.41,1.79,3.07,1.33,3.12-.42.13-4.26-1.57-8.71-3.32-12.52-.85-1.85-3.47-.24-2.7,1.58Z"/></g><g id="Shirt-2" data-name="Shirt"><path d="M195.3,395.77a59.76,59.76,0,0,0-35,32.46c-3.78,8.79-4.23,18.11-6.28,27.34-2.12,9.58-7.34,16.94-15.09,22.84-7,5.34-15,9.25-22.77,13.37-8.79,4.67-17.39,9.71-25.72,15.18a333.4,333.4,0,0,0-45,35.42C29.78,557.1,14.13,573.48,3.19,592.15c-1.49,2.54,2.18,5.6,4.19,3.24,12.39-14.54,24-29.5,37.68-42.88A322.93,322.93,0,0,1,90,515.89c15.07-10.18,31.49-17.82,46.79-27.54,6.63-4.21,12.88-9.21,17.43-15.69,5.35-7.63,6.74-16.53,8.1-25.55,3.09-20.46,14.69-37.94,34.73-45.16,3.85-1.39,2.2-7.56-1.7-6.18Z"/><path d="M395.49,495.69c23,11.67,41.62,31.49,48,56.91,3.73,14.78,7,29.41,11.73,44,12.1,37.48,24,74.74,30.61,113.68,5.47,32.39,7.17,65,8.44,97.77a1.7,1.7,0,0,0,3.41,0c1.89-52.69-5.88-106.21-20-156.93-9-32.25-21.74-63.38-28.64-96.18-5.93-28.19-25.87-50.52-51.41-62.93-2.48-1.21-4.68,2.47-2.18,3.73Z"/><path d="M59.75,625.67a294.8,294.8,0,0,1,26.37,64.82c6.18,22.63,9.09,45.76,10.79,69.12.23,3.23,5.06,3.31,5.09,0,.34-47.35-14.78-95.48-37.86-136.5-1.61-2.85-6-.3-4.39,2.57Z"/><path d="M80.58,616.56q47.26-39.39,97.4-75.13"/><path d="M81.84,617.82c31.54-26.26,64.63-50.35,97-75.52,1.09-.85-.33-2.67-1.48-1.92-34.35,22.43-66.54,48.7-98,74.92-1.76,1.47.77,4,2.52,2.52Z"/><ellipse cx="295.07" cy="544.74" rx="7.43" ry="5.76"/><path d="M413.18,614.87c7.39,28.44,8.37,58.43,10.1,87.62,1,17.42,2,34.84,3.46,52.23,1.41,17.14,2,35.47,6.38,52.16a1.44,1.44,0,0,0,2.82-.38c-.43-9.26-2.18-18.5-3.2-27.72-1-8.62-1.76-17.26-2.48-25.91-1.46-17.65-2.55-35.32-3.74-53-1.93-28.57-3.33-57.94-10.69-85.75a1.37,1.37,0,0,0-2.65.73Z"/><path d="M320.08,579.83c.16,6.64,2.36,12.72,3.17,19.17.35,2.83.43,5.72.64,8.56.91,12.11.85,24.21,1.79,36.32,2.87,36.83.85,71.66,4.17,108.45,1.63,18.11,1.44,39.68,5,57.54.72,3.62,3.47,2.77,3.39-.87-.32-16.09-2.59-32.2-4-48.22-1.71-19.05-2.31-41.11-3.91-60.17-2.57-30.71,1-59.44-1.38-90.17-.28-3.59-2.52-7.19-2.82-10.78-.56-6.7-.07-13-.24-19.81-.13-5-5.9-5-5.78,0Z"/><ellipse cx="328.57" cy="585.74" rx="3.93" ry="5.76"/><ellipse cx="332.57" cy="636.49" rx="3.93" ry="5.76"/><ellipse cx="334.57" cy="687.24" rx="3.93" ry="5.76"/><ellipse cx="336.57" cy="737.99" rx="3.93" ry="5.76"/><ellipse cx="340.57" cy="788.74" rx="3.93" ry="5.76"/></g></g></svg>